<mxfile host="app.diagrams.net" modified="2021-01-19T07:22:00.641Z" agent="5.0 (Windows NT 10.0; Win64; x64) AppleWebKit/537.36 (KHTML, like Gecko) Chrome/87.0.4280.141 Safari/537.36" etag="O6AkCz8NwCIlnUpMz0nX" version="14.2.4" type="github" pages="5">
  <diagram id="t83kVtEOJlNDuVCK2ecZ" name="Page-1">
    <mxGraphModel dx="1038" dy="548" grid="0" gridSize="10" guides="1" tooltips="1" connect="1" arrows="1" fold="1" page="1" pageScale="1" pageWidth="827" pageHeight="1169" math="0" shadow="0">
      <root>
        <mxCell id="0" />
        <mxCell id="1" parent="0" />
        <mxCell id="EamBQl-vrkgUabd1JUpG-2" value="" style="shape=cube;whiteSpace=wrap;html=1;boundedLbl=1;backgroundOutline=1;darkOpacity=0.05;darkOpacity2=0.1;fillColor=#dae8fc;strokeColor=#6c8ebf;" parent="1" vertex="1">
          <mxGeometry x="107" y="47" width="392" height="368" as="geometry" />
        </mxCell>
        <mxCell id="EamBQl-vrkgUabd1JUpG-19" value="«web-service»&lt;br&gt;&lt;b&gt;Catalog&lt;/b&gt;" style="html=1;fillColor=#e1d5e7;strokeColor=#9673a6;" parent="1" vertex="1">
          <mxGeometry x="374" y="81" width="110" height="30" as="geometry" />
        </mxCell>
        <mxCell id="EamBQl-vrkgUabd1JUpG-20" value="«web-service»&lt;br&gt;&lt;b&gt;Delivery&lt;/b&gt;" style="html=1;fillColor=#e1d5e7;strokeColor=#9673a6;" parent="1" vertex="1">
          <mxGeometry x="371" y="145" width="110" height="33" as="geometry" />
        </mxCell>
        <mxCell id="EamBQl-vrkgUabd1JUpG-21" value="«web-service»&lt;br&gt;&lt;b&gt;Order&lt;/b&gt;" style="html=1;fillColor=#e1d5e7;strokeColor=#9673a6;" parent="1" vertex="1">
          <mxGeometry x="371" y="198" width="110" height="32" as="geometry" />
        </mxCell>
        <mxCell id="EamBQl-vrkgUabd1JUpG-22" value="«web-service»&lt;br&gt;&lt;b&gt;Site&lt;/b&gt;" style="html=1;fillColor=#e1d5e7;strokeColor=#9673a6;" parent="1" vertex="1">
          <mxGeometry x="374" y="256" width="110" height="32" as="geometry" />
        </mxCell>
        <mxCell id="EamBQl-vrkgUabd1JUpG-23" value="«web-service»&lt;br&gt;&lt;b&gt;TDM&lt;/b&gt;" style="html=1;fillColor=#e1d5e7;strokeColor=#9673a6;" parent="1" vertex="1">
          <mxGeometry x="377" y="313" width="110" height="30" as="geometry" />
        </mxCell>
        <mxCell id="EamBQl-vrkgUabd1JUpG-24" value="«web-service»&lt;br&gt;&lt;b&gt;Digital Receipt&lt;/b&gt;" style="html=1;fillColor=#e1d5e7;strokeColor=#9673a6;" parent="1" vertex="1">
          <mxGeometry x="374" y="368" width="110" height="31" as="geometry" />
        </mxCell>
        <mxCell id="EamBQl-vrkgUabd1JUpG-25" value="Retail Adapter" style="text;align=center;fontStyle=1;verticalAlign=middle;spacingLeft=3;spacingRight=3;strokeColor=none;rotatable=0;points=[[0,0.5],[1,0.5]];portConstraint=eastwest;" parent="1" vertex="1">
          <mxGeometry x="199" y="9" width="215" height="26" as="geometry" />
        </mxCell>
        <mxCell id="EamBQl-vrkgUabd1JUpG-26" value="" style="shape=umlActor;verticalLabelPosition=bottom;verticalAlign=top;html=1;" parent="1" vertex="1">
          <mxGeometry x="24" y="240.5" width="30" height="60" as="geometry" />
        </mxCell>
        <mxCell id="EamBQl-vrkgUabd1JUpG-27" value="" style="shape=cube;whiteSpace=wrap;html=1;boundedLbl=1;backgroundOutline=1;darkOpacity=0.05;darkOpacity2=0.1;fillColor=#d5e8d4;strokeColor=#82b366;" parent="1" vertex="1">
          <mxGeometry x="643" y="67" width="141" height="289" as="geometry" />
        </mxCell>
        <mxCell id="EamBQl-vrkgUabd1JUpG-28" value="&lt;b&gt;BSP&lt;/b&gt;" style="text;html=1;strokeColor=none;fillColor=none;align=center;verticalAlign=middle;whiteSpace=wrap;rounded=0;" parent="1" vertex="1">
          <mxGeometry x="688" y="40" width="40" height="20" as="geometry" />
        </mxCell>
        <mxCell id="EamBQl-vrkgUabd1JUpG-29" value="" style="rounded=0;orthogonalLoop=1;jettySize=auto;html=1;endArrow=none;endFill=0;exitX=1.009;exitY=0.443;exitDx=0;exitDy=0;exitPerimeter=0;" parent="1" source="EamBQl-vrkgUabd1JUpG-2" target="EamBQl-vrkgUabd1JUpG-31" edge="1">
          <mxGeometry relative="1" as="geometry">
            <mxPoint x="500" y="314" as="sourcePoint" />
          </mxGeometry>
        </mxCell>
        <mxCell id="EamBQl-vrkgUabd1JUpG-30" value="" style="rounded=0;orthogonalLoop=1;jettySize=auto;html=1;endArrow=halfCircle;endFill=0;endSize=6;strokeWidth=1;exitX=0.009;exitY=0.546;exitDx=0;exitDy=0;exitPerimeter=0;" parent="1" source="EamBQl-vrkgUabd1JUpG-27" edge="1">
          <mxGeometry relative="1" as="geometry">
            <mxPoint x="730" y="309" as="sourcePoint" />
            <mxPoint x="608" y="226" as="targetPoint" />
          </mxGeometry>
        </mxCell>
        <mxCell id="EamBQl-vrkgUabd1JUpG-31" value="" style="ellipse;whiteSpace=wrap;html=1;fontFamily=Helvetica;fontSize=12;fontColor=#000000;align=center;strokeColor=#000000;fillColor=#ffffff;points=[];aspect=fixed;resizable=0;" parent="1" vertex="1">
          <mxGeometry x="601" y="220" width="10" height="10" as="geometry" />
        </mxCell>
        <mxCell id="EamBQl-vrkgUabd1JUpG-34" value="Identity Management" style="shape=cylinder;whiteSpace=wrap;html=1;boundedLbl=1;backgroundOutline=1;fillColor=#e1d5e7;strokeColor=#9673a6;" parent="1" vertex="1">
          <mxGeometry x="132" y="188" width="75" height="94" as="geometry" />
        </mxCell>
        <mxCell id="EamBQl-vrkgUabd1JUpG-36" value="" style="endArrow=none;html=1;rounded=0;entryX=0.005;entryY=0.619;entryDx=0;entryDy=0;entryPerimeter=0;exitX=0.75;exitY=0.1;exitDx=0;exitDy=0;exitPerimeter=0;" parent="1" source="EamBQl-vrkgUabd1JUpG-26" target="EamBQl-vrkgUabd1JUpG-34" edge="1">
          <mxGeometry relative="1" as="geometry">
            <mxPoint x="71" y="272" as="sourcePoint" />
            <mxPoint x="231" y="272" as="targetPoint" />
          </mxGeometry>
        </mxCell>
        <mxCell id="EamBQl-vrkgUabd1JUpG-53" value="«web-service»&lt;br&gt;&lt;b&gt;Catalog&lt;/b&gt;" style="html=1;fillColor=#ffe6cc;strokeColor=#d79b00;" parent="1" vertex="1">
          <mxGeometry x="670" y="96" width="109" height="26" as="geometry" />
        </mxCell>
        <mxCell id="EamBQl-vrkgUabd1JUpG-54" value="«web-service»&lt;br&gt;&lt;b&gt;Delivery&lt;/b&gt;" style="html=1;fillColor=#ffe6cc;strokeColor=#d79b00;" parent="1" vertex="1">
          <mxGeometry x="670" y="131" width="110" height="34" as="geometry" />
        </mxCell>
        <mxCell id="EamBQl-vrkgUabd1JUpG-55" value="«web-service»&lt;br&gt;&lt;b&gt;Order&lt;/b&gt;" style="html=1;fillColor=#ffe6cc;strokeColor=#d79b00;" parent="1" vertex="1">
          <mxGeometry x="670" y="173" width="110" height="33" as="geometry" />
        </mxCell>
        <mxCell id="EamBQl-vrkgUabd1JUpG-56" value="«web-service»&lt;br&gt;&lt;b&gt;Site&lt;/b&gt;" style="html=1;fillColor=#ffe6cc;strokeColor=#d79b00;" parent="1" vertex="1">
          <mxGeometry x="669" y="212" width="110" height="34" as="geometry" />
        </mxCell>
        <mxCell id="EamBQl-vrkgUabd1JUpG-57" value="«web-service»&lt;br&gt;&lt;b&gt;TDM&lt;/b&gt;" style="html=1;fillColor=#ffe6cc;strokeColor=#d79b00;" parent="1" vertex="1">
          <mxGeometry x="669.5" y="253" width="110" height="35" as="geometry" />
        </mxCell>
        <mxCell id="EamBQl-vrkgUabd1JUpG-58" value="«web-service»&lt;br&gt;&lt;b&gt;DR&lt;/b&gt;" style="html=1;fillColor=#ffe6cc;strokeColor=#d79b00;" parent="1" vertex="1">
          <mxGeometry x="669" y="300" width="110" height="36" as="geometry" />
        </mxCell>
        <mxCell id="2Wr5Cu94cnPGzxJk4k6A-1" value="" style="html=1;rounded=0;" parent="1" vertex="1">
          <mxGeometry x="368" y="90" width="14" height="14" as="geometry" />
        </mxCell>
        <mxCell id="2Wr5Cu94cnPGzxJk4k6A-2" value="" style="endArrow=none;html=1;rounded=0;align=center;verticalAlign=top;endFill=0;labelBackgroundColor=none;endSize=2;" parent="1" source="2Wr5Cu94cnPGzxJk4k6A-1" target="2Wr5Cu94cnPGzxJk4k6A-3" edge="1">
          <mxGeometry relative="1" as="geometry" />
        </mxCell>
        <mxCell id="2Wr5Cu94cnPGzxJk4k6A-3" value="" style="ellipse;html=1;fontSize=11;align=center;fillColor=none;points=[];aspect=fixed;resizable=0;verticalAlign=bottom;labelPosition=center;verticalLabelPosition=top;flipH=1;" parent="1" vertex="1">
          <mxGeometry x="272" y="173" width="8" height="8" as="geometry" />
        </mxCell>
        <mxCell id="2Wr5Cu94cnPGzxJk4k6A-4" value="" style="html=1;rounded=0;" parent="1" vertex="1">
          <mxGeometry x="365" y="159" width="12" height="11" as="geometry" />
        </mxCell>
        <mxCell id="2Wr5Cu94cnPGzxJk4k6A-5" value="" style="endArrow=none;html=1;rounded=0;align=center;verticalAlign=top;endFill=0;labelBackgroundColor=none;endSize=2;" parent="1" source="2Wr5Cu94cnPGzxJk4k6A-4" target="2Wr5Cu94cnPGzxJk4k6A-6" edge="1">
          <mxGeometry relative="1" as="geometry" />
        </mxCell>
        <mxCell id="2Wr5Cu94cnPGzxJk4k6A-6" value="" style="ellipse;html=1;fontSize=11;align=center;fillColor=none;points=[];aspect=fixed;resizable=0;verticalAlign=bottom;labelPosition=center;verticalLabelPosition=top;flipH=1;" parent="1" vertex="1">
          <mxGeometry x="272" y="198" width="8" height="8" as="geometry" />
        </mxCell>
        <mxCell id="2Wr5Cu94cnPGzxJk4k6A-7" value="" style="html=1;rounded=0;" parent="1" vertex="1">
          <mxGeometry x="365" y="208.5" width="14" height="11" as="geometry" />
        </mxCell>
        <mxCell id="2Wr5Cu94cnPGzxJk4k6A-8" value="" style="endArrow=none;html=1;rounded=0;align=center;verticalAlign=top;endFill=0;labelBackgroundColor=none;endSize=2;" parent="1" source="2Wr5Cu94cnPGzxJk4k6A-7" target="2Wr5Cu94cnPGzxJk4k6A-9" edge="1">
          <mxGeometry relative="1" as="geometry" />
        </mxCell>
        <mxCell id="2Wr5Cu94cnPGzxJk4k6A-9" value="" style="ellipse;html=1;fontSize=11;align=center;fillColor=none;points=[];aspect=fixed;resizable=0;verticalAlign=bottom;labelPosition=center;verticalLabelPosition=top;flipH=1;" parent="1" vertex="1">
          <mxGeometry x="268" y="222" width="8" height="8" as="geometry" />
        </mxCell>
        <mxCell id="2Wr5Cu94cnPGzxJk4k6A-17" value="" style="html=1;rounded=0;" parent="1" vertex="1">
          <mxGeometry x="365" y="263" width="12" height="11" as="geometry" />
        </mxCell>
        <mxCell id="2Wr5Cu94cnPGzxJk4k6A-19" value="" style="ellipse;html=1;fontSize=11;align=center;fillColor=none;points=[];aspect=fixed;resizable=0;verticalAlign=bottom;labelPosition=center;verticalLabelPosition=top;flipH=1;" parent="1" vertex="1">
          <mxGeometry x="272" y="251" width="8" height="8" as="geometry" />
        </mxCell>
        <mxCell id="2Wr5Cu94cnPGzxJk4k6A-20" value="" style="endArrow=none;html=1;rounded=0;align=center;verticalAlign=top;endFill=0;labelBackgroundColor=none;endSize=2;" parent="1" source="2Wr5Cu94cnPGzxJk4k6A-17" target="2Wr5Cu94cnPGzxJk4k6A-19" edge="1">
          <mxGeometry relative="1" as="geometry">
            <mxPoint x="365" y="274.9480519480519" as="sourcePoint" />
            <mxPoint x="303" y="283" as="targetPoint" />
          </mxGeometry>
        </mxCell>
        <mxCell id="2Wr5Cu94cnPGzxJk4k6A-25" value="" style="html=1;rounded=0;" parent="1" vertex="1">
          <mxGeometry x="372" y="322" width="10" height="12" as="geometry" />
        </mxCell>
        <mxCell id="2Wr5Cu94cnPGzxJk4k6A-26" value="" style="endArrow=none;html=1;rounded=0;align=center;verticalAlign=top;endFill=0;labelBackgroundColor=none;endSize=2;entryX=-0.05;entryY=0.55;entryDx=0;entryDy=0;entryPerimeter=0;" parent="1" source="2Wr5Cu94cnPGzxJk4k6A-25" target="2Wr5Cu94cnPGzxJk4k6A-27" edge="1">
          <mxGeometry relative="1" as="geometry" />
        </mxCell>
        <mxCell id="2Wr5Cu94cnPGzxJk4k6A-27" value="" style="ellipse;html=1;fontSize=11;align=center;fillColor=none;points=[];aspect=fixed;resizable=0;verticalAlign=bottom;labelPosition=center;verticalLabelPosition=top;flipH=1;" parent="1" vertex="1">
          <mxGeometry x="268" y="297" width="8" height="8" as="geometry" />
        </mxCell>
        <mxCell id="2Wr5Cu94cnPGzxJk4k6A-28" value="" style="html=1;rounded=0;" parent="1" vertex="1">
          <mxGeometry x="368" y="379" width="11" height="12" as="geometry" />
        </mxCell>
        <mxCell id="2Wr5Cu94cnPGzxJk4k6A-29" value="" style="ellipse;html=1;fontSize=11;align=center;fillColor=none;points=[];aspect=fixed;resizable=0;verticalAlign=bottom;labelPosition=center;verticalLabelPosition=top;flipH=1;" parent="1" vertex="1">
          <mxGeometry x="268" y="343" width="8" height="8" as="geometry" />
        </mxCell>
        <mxCell id="2Wr5Cu94cnPGzxJk4k6A-33" value="" style="endArrow=none;html=1;entryX=0;entryY=0.5;entryDx=0;entryDy=0;exitX=-0.125;exitY=0.25;exitDx=0;exitDy=0;exitPerimeter=0;" parent="1" source="2Wr5Cu94cnPGzxJk4k6A-29" target="2Wr5Cu94cnPGzxJk4k6A-28" edge="1">
          <mxGeometry width="50" height="50" relative="1" as="geometry">
            <mxPoint x="283" y="391" as="sourcePoint" />
            <mxPoint x="333" y="341" as="targetPoint" />
          </mxGeometry>
        </mxCell>
        <mxCell id="2Wr5Cu94cnPGzxJk4k6A-34" value="" style="endArrow=none;dashed=1;html=1;exitX=0.997;exitY=0.406;exitDx=0;exitDy=0;exitPerimeter=0;" parent="1" source="EamBQl-vrkgUabd1JUpG-34" target="2Wr5Cu94cnPGzxJk4k6A-3" edge="1">
          <mxGeometry width="50" height="50" relative="1" as="geometry">
            <mxPoint x="208" y="263" as="sourcePoint" />
            <mxPoint x="258" y="213" as="targetPoint" />
          </mxGeometry>
        </mxCell>
        <mxCell id="2Wr5Cu94cnPGzxJk4k6A-35" value="" style="endArrow=none;dashed=1;html=1;exitX=0.85;exitY=0.95;exitDx=0;exitDy=0;exitPerimeter=0;" parent="1" source="EamBQl-vrkgUabd1JUpG-34" target="2Wr5Cu94cnPGzxJk4k6A-29" edge="1">
          <mxGeometry width="50" height="50" relative="1" as="geometry">
            <mxPoint x="183" y="358" as="sourcePoint" />
            <mxPoint x="233" y="308" as="targetPoint" />
          </mxGeometry>
        </mxCell>
        <mxCell id="2Wr5Cu94cnPGzxJk4k6A-36" value="" style="endArrow=none;dashed=1;html=1;exitX=1.029;exitY=0.594;exitDx=0;exitDy=0;exitPerimeter=0;entryX=0.85;entryY=0.825;entryDx=0;entryDy=0;entryPerimeter=0;" parent="1" source="EamBQl-vrkgUabd1JUpG-34" target="2Wr5Cu94cnPGzxJk4k6A-6" edge="1">
          <mxGeometry width="50" height="50" relative="1" as="geometry">
            <mxPoint x="216" y="279" as="sourcePoint" />
            <mxPoint x="266" y="229" as="targetPoint" />
          </mxGeometry>
        </mxCell>
        <mxCell id="2Wr5Cu94cnPGzxJk4k6A-37" value="" style="endArrow=none;dashed=1;html=1;exitX=1;exitY=0.7;exitDx=0;exitDy=0;entryX=0.85;entryY=0.825;entryDx=0;entryDy=0;entryPerimeter=0;" parent="1" source="EamBQl-vrkgUabd1JUpG-34" target="2Wr5Cu94cnPGzxJk4k6A-9" edge="1">
          <mxGeometry width="50" height="50" relative="1" as="geometry">
            <mxPoint x="230" y="297" as="sourcePoint" />
            <mxPoint x="280" y="247" as="targetPoint" />
          </mxGeometry>
        </mxCell>
        <mxCell id="2Wr5Cu94cnPGzxJk4k6A-38" value="" style="endArrow=none;dashed=1;html=1;exitX=0.973;exitY=0.798;exitDx=0;exitDy=0;exitPerimeter=0;" parent="1" source="EamBQl-vrkgUabd1JUpG-34" edge="1">
          <mxGeometry width="50" height="50" relative="1" as="geometry">
            <mxPoint x="225" y="304" as="sourcePoint" />
            <mxPoint x="275" y="254" as="targetPoint" />
          </mxGeometry>
        </mxCell>
        <mxCell id="2Wr5Cu94cnPGzxJk4k6A-39" value="" style="endArrow=none;dashed=1;html=1;exitX=0.997;exitY=0.883;exitDx=0;exitDy=0;exitPerimeter=0;entryX=0.75;entryY=-0.15;entryDx=0;entryDy=0;entryPerimeter=0;" parent="1" source="EamBQl-vrkgUabd1JUpG-34" target="2Wr5Cu94cnPGzxJk4k6A-27" edge="1">
          <mxGeometry width="50" height="50" relative="1" as="geometry">
            <mxPoint x="235" y="322" as="sourcePoint" />
            <mxPoint x="285" y="272" as="targetPoint" />
          </mxGeometry>
        </mxCell>
      </root>
    </mxGraphModel>
  </diagram>
  <diagram id="DDy-4Jy2RTRMB-r2QDTc" name="Page-2">
    <mxGraphModel dx="1038" dy="548" grid="0" gridSize="10" guides="1" tooltips="1" connect="1" arrows="1" fold="1" page="1" pageScale="1" pageWidth="827" pageHeight="1169" math="0" shadow="0">
      <root>
        <mxCell id="8EU6oOtGY9i4ebcZ2DHo-0" />
        <mxCell id="8EU6oOtGY9i4ebcZ2DHo-1" parent="8EU6oOtGY9i4ebcZ2DHo-0" />
        <mxCell id="8EU6oOtGY9i4ebcZ2DHo-2" value="Order functionality&amp;nbsp;&amp;nbsp;" style="rounded=0;whiteSpace=wrap;html=1;" parent="8EU6oOtGY9i4ebcZ2DHo-1" vertex="1">
          <mxGeometry x="209" y="201" width="120" height="60" as="geometry" />
        </mxCell>
        <mxCell id="8EU6oOtGY9i4ebcZ2DHo-3" value="Actor" style="shape=umlActor;verticalLabelPosition=bottom;verticalAlign=top;html=1;outlineConnect=0;" parent="8EU6oOtGY9i4ebcZ2DHo-1" vertex="1">
          <mxGeometry x="50" y="203" width="30" height="60" as="geometry" />
        </mxCell>
        <mxCell id="8EU6oOtGY9i4ebcZ2DHo-4" value="Order" style="rounded=0;whiteSpace=wrap;html=1;" parent="8EU6oOtGY9i4ebcZ2DHo-1" vertex="1">
          <mxGeometry x="443" y="77" width="120" height="60" as="geometry" />
        </mxCell>
        <mxCell id="8EU6oOtGY9i4ebcZ2DHo-5" value="Delivery" style="rounded=0;whiteSpace=wrap;html=1;" parent="8EU6oOtGY9i4ebcZ2DHo-1" vertex="1">
          <mxGeometry x="452" y="291" width="120" height="60" as="geometry" />
        </mxCell>
        <mxCell id="8EU6oOtGY9i4ebcZ2DHo-9" value="" style="endArrow=none;html=1;exitX=0.5;exitY=0.5;exitDx=0;exitDy=0;exitPerimeter=0;" parent="8EU6oOtGY9i4ebcZ2DHo-1" source="8EU6oOtGY9i4ebcZ2DHo-3" edge="1">
          <mxGeometry width="50" height="50" relative="1" as="geometry">
            <mxPoint x="108" y="258" as="sourcePoint" />
            <mxPoint x="207" y="233" as="targetPoint" />
          </mxGeometry>
        </mxCell>
        <mxCell id="8EU6oOtGY9i4ebcZ2DHo-10" value="" style="endArrow=none;html=1;exitX=1;exitY=0.5;exitDx=0;exitDy=0;" parent="8EU6oOtGY9i4ebcZ2DHo-1" source="8EU6oOtGY9i4ebcZ2DHo-2" edge="1">
          <mxGeometry width="50" height="50" relative="1" as="geometry">
            <mxPoint x="356" y="217" as="sourcePoint" />
            <mxPoint x="442" y="105" as="targetPoint" />
          </mxGeometry>
        </mxCell>
        <mxCell id="8EU6oOtGY9i4ebcZ2DHo-11" value="" style="endArrow=none;html=1;exitX=1;exitY=0.5;exitDx=0;exitDy=0;" parent="8EU6oOtGY9i4ebcZ2DHo-1" source="8EU6oOtGY9i4ebcZ2DHo-2" edge="1">
          <mxGeometry width="50" height="50" relative="1" as="geometry">
            <mxPoint x="340" y="320.5" as="sourcePoint" />
            <mxPoint x="452" y="320.5" as="targetPoint" />
          </mxGeometry>
        </mxCell>
      </root>
    </mxGraphModel>
  </diagram>
  <diagram id="awFHFQRpIr_qE4bledUg" name="Page-3">
    <mxGraphModel dx="1038" dy="548" grid="0" gridSize="10" guides="1" tooltips="1" connect="1" arrows="1" fold="1" page="1" pageScale="1" pageWidth="827" pageHeight="1169" math="0" shadow="0">
      <root>
        <mxCell id="CYe3KxdngSGQmrA48I9N-0" />
        <mxCell id="CYe3KxdngSGQmrA48I9N-1" parent="CYe3KxdngSGQmrA48I9N-0" />
        <mxCell id="CYe3KxdngSGQmrA48I9N-2" value="" style="shape=cube;whiteSpace=wrap;html=1;boundedLbl=1;backgroundOutline=1;darkOpacity=0.05;darkOpacity2=0.1;fillColor=#dae8fc;strokeColor=#6c8ebf;" parent="CYe3KxdngSGQmrA48I9N-1" vertex="1">
          <mxGeometry x="260" y="110" width="110" height="198" as="geometry" />
        </mxCell>
        <mxCell id="CYe3KxdngSGQmrA48I9N-3" value="Add Item to Cart" style="rounded=0;whiteSpace=wrap;html=1;fillColor=#e1d5e7;strokeColor=#9673a6;" parent="CYe3KxdngSGQmrA48I9N-1" vertex="1">
          <mxGeometry x="286" y="137" width="80" height="33" as="geometry" />
        </mxCell>
        <mxCell id="CYe3KxdngSGQmrA48I9N-4" value="" style="shape=cube;whiteSpace=wrap;html=1;boundedLbl=1;backgroundOutline=1;darkOpacity=0.05;darkOpacity2=0.1;fillColor=#d5e8d4;strokeColor=#82b366;" parent="CYe3KxdngSGQmrA48I9N-1" vertex="1">
          <mxGeometry x="480" y="26" width="170" height="250" as="geometry" />
        </mxCell>
        <mxCell id="CYe3KxdngSGQmrA48I9N-5" value="Catalog" style="rounded=0;whiteSpace=wrap;html=1;fillColor=#fff2cc;strokeColor=#d6b656;" parent="CYe3KxdngSGQmrA48I9N-1" vertex="1">
          <mxGeometry x="516" y="60" width="120" height="20" as="geometry" />
        </mxCell>
        <mxCell id="CYe3KxdngSGQmrA48I9N-6" value="Item Availability" style="rounded=0;whiteSpace=wrap;html=1;fillColor=#fff2cc;strokeColor=#d6b656;" parent="CYe3KxdngSGQmrA48I9N-1" vertex="1">
          <mxGeometry x="516" y="88" width="120" height="22" as="geometry" />
        </mxCell>
        <mxCell id="CYe3KxdngSGQmrA48I9N-7" value="Promotions&amp;nbsp;" style="rounded=0;whiteSpace=wrap;html=1;fillColor=#fff2cc;strokeColor=#d6b656;" parent="CYe3KxdngSGQmrA48I9N-1" vertex="1">
          <mxGeometry x="516" y="118" width="120" height="23" as="geometry" />
        </mxCell>
        <mxCell id="CYe3KxdngSGQmrA48I9N-8" value="&lt;b&gt;On-Premise System&lt;br&gt;&amp;nbsp;(R10,OCTANE2k)&lt;/b&gt;" style="shape=umlActor;verticalLabelPosition=bottom;verticalAlign=top;html=1;outlineConnect=0;" parent="CYe3KxdngSGQmrA48I9N-1" vertex="1">
          <mxGeometry x="50" y="210" width="30" height="60" as="geometry" />
        </mxCell>
        <mxCell id="CYe3KxdngSGQmrA48I9N-9" value="" style="endArrow=none;html=1;exitX=0.5;exitY=0.5;exitDx=0;exitDy=0;exitPerimeter=0;entryX=0;entryY=0.5;entryDx=0;entryDy=0;entryPerimeter=0;" parent="CYe3KxdngSGQmrA48I9N-1" source="CYe3KxdngSGQmrA48I9N-8" edge="1" target="0eO6J_PEDzo9D25wGqc5-5">
          <mxGeometry width="50" height="50" relative="1" as="geometry">
            <mxPoint x="140" y="270" as="sourcePoint" />
            <mxPoint x="290" y="240" as="targetPoint" />
          </mxGeometry>
        </mxCell>
        <mxCell id="CYe3KxdngSGQmrA48I9N-10" value="" style="endArrow=none;html=1;exitX=1;exitY=0.5;exitDx=0;exitDy=0;entryX=0;entryY=0.5;entryDx=0;entryDy=0;exitPerimeter=0;" parent="CYe3KxdngSGQmrA48I9N-1" source="0eO6J_PEDzo9D25wGqc5-5" target="CYe3KxdngSGQmrA48I9N-5" edge="1">
          <mxGeometry width="50" height="50" relative="1" as="geometry">
            <mxPoint x="400" y="210" as="sourcePoint" />
            <mxPoint x="450" y="160" as="targetPoint" />
          </mxGeometry>
        </mxCell>
        <mxCell id="CYe3KxdngSGQmrA48I9N-11" value="" style="endArrow=none;html=1;exitX=1;exitY=0.5;exitDx=0;exitDy=0;entryX=0;entryY=0.5;entryDx=0;entryDy=0;" parent="CYe3KxdngSGQmrA48I9N-1" source="CYe3KxdngSGQmrA48I9N-3" target="CYe3KxdngSGQmrA48I9N-6" edge="1">
          <mxGeometry width="50" height="50" relative="1" as="geometry">
            <mxPoint x="390" y="260" as="sourcePoint" />
            <mxPoint x="440" y="210" as="targetPoint" />
          </mxGeometry>
        </mxCell>
        <mxCell id="CYe3KxdngSGQmrA48I9N-12" value="" style="endArrow=none;html=1;exitX=1;exitY=0.5;exitDx=0;exitDy=0;entryX=0;entryY=0.5;entryDx=0;entryDy=0;exitPerimeter=0;" parent="CYe3KxdngSGQmrA48I9N-1" source="0eO6J_PEDzo9D25wGqc5-5" target="CYe3KxdngSGQmrA48I9N-7" edge="1">
          <mxGeometry width="50" height="50" relative="1" as="geometry">
            <mxPoint x="410" y="300" as="sourcePoint" />
            <mxPoint x="460" y="250" as="targetPoint" />
          </mxGeometry>
        </mxCell>
        <mxCell id="GbG6x3V0a6peTZ6qXw4n-2" value="&lt;b&gt;BSP&lt;/b&gt;" style="text;html=1;strokeColor=none;fillColor=none;align=center;verticalAlign=middle;whiteSpace=wrap;rounded=0;" parent="CYe3KxdngSGQmrA48I9N-1" vertex="1">
          <mxGeometry x="535" y="2" width="60" height="20" as="geometry" />
        </mxCell>
        <mxCell id="GbG6x3V0a6peTZ6qXw4n-3" value="&lt;b&gt;Retail Adapter&lt;/b&gt;" style="text;html=1;strokeColor=none;fillColor=none;align=center;verticalAlign=middle;whiteSpace=wrap;rounded=0;" parent="CYe3KxdngSGQmrA48I9N-1" vertex="1">
          <mxGeometry x="270" y="80" width="100" height="20" as="geometry" />
        </mxCell>
        <mxCell id="0eO6J_PEDzo9D25wGqc5-0" value="Order" style="rounded=0;whiteSpace=wrap;html=1;fillColor=#fff2cc;strokeColor=#d6b656;" vertex="1" parent="CYe3KxdngSGQmrA48I9N-1">
          <mxGeometry x="516" y="149" width="120" height="23" as="geometry" />
        </mxCell>
        <mxCell id="0eO6J_PEDzo9D25wGqc5-1" value="Delivery" style="rounded=0;whiteSpace=wrap;html=1;fillColor=#fff2cc;strokeColor=#d6b656;" vertex="1" parent="CYe3KxdngSGQmrA48I9N-1">
          <mxGeometry x="516" y="180" width="120" height="23" as="geometry" />
        </mxCell>
        <mxCell id="0eO6J_PEDzo9D25wGqc5-2" value="TDM" style="rounded=0;whiteSpace=wrap;html=1;fillColor=#fff2cc;strokeColor=#d6b656;" vertex="1" parent="CYe3KxdngSGQmrA48I9N-1">
          <mxGeometry x="516" y="210" width="120" height="23" as="geometry" />
        </mxCell>
        <mxCell id="0eO6J_PEDzo9D25wGqc5-3" value="Digital Receipt" style="rounded=0;whiteSpace=wrap;html=1;fillColor=#fff2cc;strokeColor=#d6b656;" vertex="1" parent="CYe3KxdngSGQmrA48I9N-1">
          <mxGeometry x="516" y="241" width="120" height="23" as="geometry" />
        </mxCell>
        <mxCell id="0eO6J_PEDzo9D25wGqc5-5" value="Add Items to Cart" style="html=1;outlineConnect=0;whiteSpace=wrap;fillColor=#99ffff;shape=mxgraph.archimate3.application;appType=func;archiType=rounded;" vertex="1" parent="CYe3KxdngSGQmrA48I9N-1">
          <mxGeometry x="286" y="133.5" width="81" height="40" as="geometry" />
        </mxCell>
        <mxCell id="0eO6J_PEDzo9D25wGqc5-6" value="Order" style="html=1;outlineConnect=0;whiteSpace=wrap;fillColor=#99ffff;shape=mxgraph.archimate3.application;appType=func;archiType=rounded;" vertex="1" parent="CYe3KxdngSGQmrA48I9N-1">
          <mxGeometry x="283" y="243" width="82" height="43" as="geometry" />
        </mxCell>
        <mxCell id="0eO6J_PEDzo9D25wGqc5-7" value="" style="endArrow=none;html=1;exitX=0.5;exitY=0.5;exitDx=0;exitDy=0;exitPerimeter=0;entryX=0;entryY=0.5;entryDx=0;entryDy=0;entryPerimeter=0;" edge="1" parent="CYe3KxdngSGQmrA48I9N-1" source="CYe3KxdngSGQmrA48I9N-8" target="0eO6J_PEDzo9D25wGqc5-6">
          <mxGeometry width="50" height="50" relative="1" as="geometry">
            <mxPoint x="134" y="354" as="sourcePoint" />
            <mxPoint x="184" y="304" as="targetPoint" />
          </mxGeometry>
        </mxCell>
        <mxCell id="0eO6J_PEDzo9D25wGqc5-8" value="" style="endArrow=none;html=1;exitX=1;exitY=0.5;exitDx=0;exitDy=0;exitPerimeter=0;entryX=0;entryY=0.5;entryDx=0;entryDy=0;" edge="1" parent="CYe3KxdngSGQmrA48I9N-1" source="0eO6J_PEDzo9D25wGqc5-5" target="0eO6J_PEDzo9D25wGqc5-0">
          <mxGeometry width="50" height="50" relative="1" as="geometry">
            <mxPoint x="402" y="228" as="sourcePoint" />
            <mxPoint x="452" y="178" as="targetPoint" />
          </mxGeometry>
        </mxCell>
        <mxCell id="0eO6J_PEDzo9D25wGqc5-9" value="" style="shape=cube;whiteSpace=wrap;html=1;boundedLbl=1;backgroundOutline=1;darkOpacity=0.05;darkOpacity2=0.1;fillColor=#fff2cc;strokeColor=#d6b656;" vertex="1" parent="CYe3KxdngSGQmrA48I9N-1">
          <mxGeometry x="493" y="304" width="159" height="80" as="geometry" />
        </mxCell>
        <mxCell id="0eO6J_PEDzo9D25wGqc5-10" value="" style="endArrow=none;html=1;exitX=1;exitY=0.5;exitDx=0;exitDy=0;exitPerimeter=0;entryX=0;entryY=0.75;entryDx=0;entryDy=0;" edge="1" parent="CYe3KxdngSGQmrA48I9N-1" source="0eO6J_PEDzo9D25wGqc5-6" target="0eO6J_PEDzo9D25wGqc5-0">
          <mxGeometry width="50" height="50" relative="1" as="geometry">
            <mxPoint x="387" y="242" as="sourcePoint" />
            <mxPoint x="437" y="192" as="targetPoint" />
          </mxGeometry>
        </mxCell>
        <mxCell id="0eO6J_PEDzo9D25wGqc5-11" value="" style="endArrow=none;html=1;exitX=1;exitY=0.5;exitDx=0;exitDy=0;exitPerimeter=0;entryX=0;entryY=0.75;entryDx=0;entryDy=0;" edge="1" parent="CYe3KxdngSGQmrA48I9N-1" source="0eO6J_PEDzo9D25wGqc5-6" target="CYe3KxdngSGQmrA48I9N-7">
          <mxGeometry width="50" height="50" relative="1" as="geometry">
            <mxPoint x="401" y="264" as="sourcePoint" />
            <mxPoint x="451" y="214" as="targetPoint" />
          </mxGeometry>
        </mxCell>
        <mxCell id="0eO6J_PEDzo9D25wGqc5-12" value="" style="endArrow=none;html=1;exitX=1;exitY=0.5;exitDx=0;exitDy=0;exitPerimeter=0;entryX=0;entryY=0.5;entryDx=0;entryDy=0;" edge="1" parent="CYe3KxdngSGQmrA48I9N-1" source="0eO6J_PEDzo9D25wGqc5-6" target="0eO6J_PEDzo9D25wGqc5-2">
          <mxGeometry width="50" height="50" relative="1" as="geometry">
            <mxPoint x="399" y="280" as="sourcePoint" />
            <mxPoint x="449" y="230" as="targetPoint" />
          </mxGeometry>
        </mxCell>
        <mxCell id="0eO6J_PEDzo9D25wGqc5-13" value="" style="endArrow=none;html=1;entryX=0;entryY=0.5;entryDx=0;entryDy=0;" edge="1" parent="CYe3KxdngSGQmrA48I9N-1" target="0eO6J_PEDzo9D25wGqc5-3">
          <mxGeometry width="50" height="50" relative="1" as="geometry">
            <mxPoint x="367" y="268" as="sourcePoint" />
            <mxPoint x="446" y="311" as="targetPoint" />
          </mxGeometry>
        </mxCell>
        <mxCell id="0eO6J_PEDzo9D25wGqc5-14" value="Payment" style="rounded=0;whiteSpace=wrap;html=1;fillColor=#ffe6cc;strokeColor=#d79b00;" vertex="1" parent="CYe3KxdngSGQmrA48I9N-1">
          <mxGeometry x="526" y="332" width="120" height="19" as="geometry" />
        </mxCell>
        <mxCell id="0eO6J_PEDzo9D25wGqc5-15" value="&lt;b&gt;3rd Party Services&lt;/b&gt;" style="text;html=1;strokeColor=none;fillColor=none;align=center;verticalAlign=middle;whiteSpace=wrap;rounded=0;" vertex="1" parent="CYe3KxdngSGQmrA48I9N-1">
          <mxGeometry x="512" y="280" width="120" height="20" as="geometry" />
        </mxCell>
        <mxCell id="0eO6J_PEDzo9D25wGqc5-16" value="Loyalty" style="rounded=0;whiteSpace=wrap;html=1;fillColor=#ffe6cc;strokeColor=#d79b00;" vertex="1" parent="CYe3KxdngSGQmrA48I9N-1">
          <mxGeometry x="526" y="358" width="120" height="19" as="geometry" />
        </mxCell>
        <mxCell id="0eO6J_PEDzo9D25wGqc5-18" value="" style="endArrow=none;dashed=1;html=1;entryX=0;entryY=0.5;entryDx=0;entryDy=0;" edge="1" parent="CYe3KxdngSGQmrA48I9N-1" target="0eO6J_PEDzo9D25wGqc5-14">
          <mxGeometry width="50" height="50" relative="1" as="geometry">
            <mxPoint x="365" y="265" as="sourcePoint" />
            <mxPoint x="449" y="321" as="targetPoint" />
          </mxGeometry>
        </mxCell>
        <mxCell id="0eO6J_PEDzo9D25wGqc5-19" value="" style="endArrow=none;dashed=1;html=1;exitX=1;exitY=0.5;exitDx=0;exitDy=0;exitPerimeter=0;entryX=0;entryY=0.25;entryDx=0;entryDy=0;" edge="1" parent="CYe3KxdngSGQmrA48I9N-1" source="0eO6J_PEDzo9D25wGqc5-6" target="0eO6J_PEDzo9D25wGqc5-16">
          <mxGeometry width="50" height="50" relative="1" as="geometry">
            <mxPoint x="437" y="410" as="sourcePoint" />
            <mxPoint x="487" y="360" as="targetPoint" />
          </mxGeometry>
        </mxCell>
      </root>
    </mxGraphModel>
  </diagram>
  <diagram id="PItftRakYI8XLIO-R3DK" name="Page-4">
    <mxGraphModel dx="1038" dy="548" grid="1" gridSize="10" guides="1" tooltips="1" connect="1" arrows="1" fold="1" page="1" pageScale="1" pageWidth="827" pageHeight="1169" math="0" shadow="0">
      <root>
        <mxCell id="CIGo6G4XOKzgyUFYzr0o-0" />
        <mxCell id="CIGo6G4XOKzgyUFYzr0o-1" parent="CIGo6G4XOKzgyUFYzr0o-0" />
      </root>
    </mxGraphModel>
  </diagram>
  <diagram id="rrH8QJ6rGhf3iOXZ497R" name="Page-5">
    <mxGraphModel dx="1038" dy="548" grid="0" gridSize="10" guides="1" tooltips="1" connect="1" arrows="1" fold="1" page="0" pageScale="1" pageWidth="827" pageHeight="1169" math="0" shadow="0">
      <root>
        <mxCell id="pMiuIkMGGafNwx6goWgJ-0" />
        <mxCell id="pMiuIkMGGafNwx6goWgJ-1" parent="pMiuIkMGGafNwx6goWgJ-0" />
        <mxCell id="pMiuIkMGGafNwx6goWgJ-2" value="" style="ellipse;shape=cloud;whiteSpace=wrap;html=1;fillColor=#1ba1e2;strokeColor=#006EAF;fontColor=#ffffff;" vertex="1" parent="pMiuIkMGGafNwx6goWgJ-1">
          <mxGeometry x="581" y="155" width="204" height="130" as="geometry" />
        </mxCell>
        <mxCell id="pMiuIkMGGafNwx6goWgJ-3" value="Retail Adapter" style="shape=cube;whiteSpace=wrap;html=1;boundedLbl=1;backgroundOutline=1;darkOpacity=0.05;darkOpacity2=0.1;fillColor=#60a917;strokeColor=#2D7600;fontColor=#ffffff;" vertex="1" parent="pMiuIkMGGafNwx6goWgJ-1">
          <mxGeometry x="645" y="190" width="83" height="57" as="geometry" />
        </mxCell>
        <mxCell id="pMiuIkMGGafNwx6goWgJ-4" value="" style="shape=cube;whiteSpace=wrap;html=1;boundedLbl=1;backgroundOutline=1;darkOpacity=0.05;darkOpacity2=0.1;gradientColor=#ffd966;fillColor=#fff2cc;strokeColor=#d6b656;" vertex="1" parent="pMiuIkMGGafNwx6goWgJ-1">
          <mxGeometry x="339" y="195" width="161" height="100" as="geometry" />
        </mxCell>
        <mxCell id="pMiuIkMGGafNwx6goWgJ-5" value="Generated Cofig/dump file" style="rounded=0;whiteSpace=wrap;html=1;gradientColor=#ffd966;fillColor=#fff2cc;strokeColor=#d6b656;" vertex="1" parent="pMiuIkMGGafNwx6goWgJ-1">
          <mxGeometry x="368" y="220" width="120" height="27" as="geometry" />
        </mxCell>
        <mxCell id="pMiuIkMGGafNwx6goWgJ-6" value="Store DB" style="shape=cylinder3;whiteSpace=wrap;html=1;boundedLbl=1;backgroundOutline=1;size=15;gradientColor=#ffd966;fillColor=#fff2cc;strokeColor=#d6b656;" vertex="1" parent="pMiuIkMGGafNwx6goWgJ-1">
          <mxGeometry x="219" y="205" width="60" height="80" as="geometry" />
        </mxCell>
        <mxCell id="pMiuIkMGGafNwx6goWgJ-7" value="" style="endArrow=classic;startArrow=classic;html=1;exitX=1;exitY=0.5;exitDx=0;exitDy=0;entryX=0;entryY=0;entryDx=10;entryDy=47;entryPerimeter=0;" edge="1" parent="pMiuIkMGGafNwx6goWgJ-1" source="pMiuIkMGGafNwx6goWgJ-5" target="pMiuIkMGGafNwx6goWgJ-3">
          <mxGeometry width="50" height="50" relative="1" as="geometry">
            <mxPoint x="551" y="239" as="sourcePoint" />
            <mxPoint x="601" y="189" as="targetPoint" />
          </mxGeometry>
        </mxCell>
        <mxCell id="pMiuIkMGGafNwx6goWgJ-8" value="&lt;b&gt;On-Premise System&lt;/b&gt;" style="text;html=1;strokeColor=none;fillColor=none;align=center;verticalAlign=middle;whiteSpace=wrap;rounded=0;" vertex="1" parent="pMiuIkMGGafNwx6goWgJ-1">
          <mxGeometry x="352" y="162" width="112" height="20" as="geometry" />
        </mxCell>
        <mxCell id="pMiuIkMGGafNwx6goWgJ-9" value="" style="endArrow=classic;startArrow=classic;html=1;exitX=1;exitY=0.5;exitDx=0;exitDy=0;exitPerimeter=0;entryX=0.004;entryY=0.504;entryDx=0;entryDy=0;entryPerimeter=0;" edge="1" parent="pMiuIkMGGafNwx6goWgJ-1" source="pMiuIkMGGafNwx6goWgJ-6" target="pMiuIkMGGafNwx6goWgJ-4">
          <mxGeometry width="50" height="50" relative="1" as="geometry">
            <mxPoint x="284" y="268" as="sourcePoint" />
            <mxPoint x="334" y="218" as="targetPoint" />
          </mxGeometry>
        </mxCell>
      </root>
    </mxGraphModel>
  </diagram>
</mxfile>
